<svg width="53" height="30" viewBox="0 0 53 30" fill="none" xmlns="http://www.w3.org/2000/svg">
<path d="M36.5799 0.710728L37.2428 2.06961C37.4085 2.42501 37.7399 2.65498 38.1128 2.7177L39.6042 2.92676C40.557 3.0731 40.9299 4.24383 40.2463 4.93372L39.1692 5.99993C38.8999 6.2717 38.7756 6.64801 38.8377 7.04522L39.0863 8.55045C39.252 9.51212 38.2578 10.2438 37.4085 9.7839L36.0828 9.0731C35.7514 8.88494 35.3371 8.88494 35.0056 9.0731L33.68 9.7839C32.8307 10.2438 31.8364 9.51212 32.0021 8.55045L32.2507 7.04522C32.3128 6.66892 32.1885 6.2717 31.9193 5.99993L30.8421 4.93372C30.1586 4.26473 30.5314 3.0731 31.4843 2.92676L32.9757 2.7177C33.3485 2.65498 33.6799 2.42501 33.8457 2.06961L34.5085 0.710728C34.9228 -0.146415 36.1449 -0.146415 36.5799 0.710728Z" fill="#F4C82F"/>
<path d="M22.9307 23.2894L23.345 24.1257C23.4486 24.3347 23.6557 24.4811 23.8835 24.5229L24.795 24.6483C25.375 24.732 25.6235 25.4637 25.1885 25.8818L24.5257 26.5299C24.36 26.6971 24.2771 26.9271 24.3185 27.1779L24.4843 28.0978C24.5878 28.6832 23.9664 29.1431 23.4486 28.8504L22.62 28.4114C22.4128 28.3069 22.1643 28.3069 21.9571 28.4114L21.1286 28.8504C20.6107 29.1222 19.9893 28.6832 20.0929 28.0978L20.2586 27.1779C20.3 26.948 20.2172 26.6971 20.0515 26.5299L19.3886 25.8818C18.9536 25.4637 19.2022 24.732 19.7822 24.6483L20.6936 24.5229C20.9214 24.4811 21.1286 24.3347 21.2322 24.1257L21.6464 23.2894C21.9157 22.7668 22.6614 22.7668 22.9307 23.2894Z" fill="#F4C82F"/>
<path d="M45.6537 8.13232H38.8181H14.272H5.36493C2.40283 8.13232 0 10.5574 0 13.5261C0 16.5156 2.40283 18.9407 5.36493 18.9407L14.272 19.0034H38.8388L45.6744 18.9407C48.6365 18.9407 51.0394 16.5156 51.0394 13.5261C51.0186 10.5574 48.6158 8.13232 45.6537 8.13232Z" fill="#EC1E8E"/>
<path d="M7.87093 13.1916V16.0348C7.64308 16.0975 7.41522 16.1603 7.14594 16.223C6.66952 16.3066 6.08953 16.3902 5.44739 16.3902C3.70741 16.3902 2.98242 15.6376 2.98242 14.6341C2.98242 13.6306 3.72813 12.878 5.44739 12.878C5.7581 12.878 6.0481 12.8989 6.25524 12.9198C6.37952 12.9198 6.48309 12.9407 6.58666 12.9616C6.58666 12.3972 6.23452 12.0627 5.44739 12.0627C5.05382 12.0627 4.70169 12.1463 4.45312 12.2299C4.30812 12.2718 4.18384 12.3345 4.05955 12.4181L3.56241 11.5191C3.70741 11.4146 3.87313 11.331 4.05955 11.2474C4.41169 11.101 4.84668 10.9756 5.44739 10.9756C7.04237 10.9965 7.87093 11.8327 7.87093 13.1916ZM6.23452 15.2195C6.35881 15.1986 6.46238 15.1777 6.58666 15.1568V14.1115C6.48309 14.0906 6.35881 14.0697 6.23452 14.0697C6.00667 14.0488 5.7581 14.0279 5.44739 14.0279C4.59812 14.0279 4.30812 14.3205 4.30812 14.6759C4.30812 15.0313 4.59812 15.324 5.44739 15.324C5.7581 15.2822 6.02738 15.2613 6.23452 15.2195Z" fill="white"/>
<path d="M11.1452 14.885L12.5331 11.2056H13.9209L11.8909 16.1812H10.3581L8.32812 11.2056H9.71596L11.1038 14.885H11.1452Z" fill="white"/>
<path d="M19.035 13.1916V16.0348C18.8071 16.0975 18.5793 16.1603 18.31 16.223C17.8336 16.3066 17.2536 16.3902 16.6115 16.3902C14.8715 16.3902 14.1465 15.6376 14.1465 14.6341C14.1465 13.6306 14.8922 12.878 16.6115 12.878C16.9222 12.878 17.2122 12.8989 17.4193 12.9198C17.5436 12.9198 17.6472 12.9407 17.7507 12.9616C17.7507 12.3972 17.3986 12.0627 16.6115 12.0627C16.2179 12.0627 15.8657 12.1463 15.6172 12.2299C15.4722 12.2718 15.3479 12.3345 15.2236 12.4181L14.7265 11.5191C14.8715 11.4146 15.0372 11.331 15.2236 11.2474C15.5758 11.101 16.0107 10.9756 16.6115 10.9756C18.1857 10.9965 19.035 11.8327 19.035 13.1916ZM17.3986 15.2195C17.5229 15.1986 17.6264 15.1777 17.7507 15.1568V14.1115C17.6472 14.0906 17.5229 14.0697 17.3986 14.0697C17.1707 14.0488 16.9222 14.0279 16.6115 14.0279C15.7622 14.0279 15.4722 14.3205 15.4722 14.6759C15.4722 15.0313 15.7622 15.324 16.6115 15.324C16.9014 15.2822 17.1914 15.2613 17.3986 15.2195Z" fill="white"/>
<path d="M21.957 9.78409V11.1848H23.4898V12.2301H21.957V14.3207C21.957 14.9269 22.3091 15.2614 22.8891 15.2614C23.117 15.2614 23.3034 15.2196 23.4277 15.1569C23.5105 15.136 23.5727 15.0942 23.6348 15.0524L23.9248 16.0559C23.8213 16.0977 23.697 16.1604 23.5727 16.2022C23.3448 16.2858 23.0963 16.3485 22.7856 16.3485C21.3977 16.3485 20.652 15.6168 20.652 14.2998V12.2092H19.8027V11.1639H20.652L21.1491 9.76318H21.957V9.78409Z" fill="white"/>
<path d="M29.1229 13.1916V16.0348C28.895 16.0975 28.6672 16.1603 28.3979 16.223C27.9215 16.3066 27.3415 16.3902 26.6993 16.3902C24.9594 16.3902 24.2344 15.6376 24.2344 14.6341C24.2344 13.6306 24.9801 12.878 26.6993 12.878C27.0101 12.878 27.3001 12.8989 27.5072 12.9198C27.6315 12.9198 27.735 12.9407 27.8386 12.9616C27.8386 12.3972 27.4865 12.0627 26.6993 12.0627C26.3058 12.0627 25.9536 12.1463 25.7051 12.2299C25.5601 12.2718 25.4358 12.3345 25.3115 12.4181L24.8144 11.5191C24.9594 11.4146 25.1251 11.331 25.3115 11.2474C25.6636 11.101 26.0986 10.9756 26.6993 10.9756C28.2943 10.9756 29.1229 11.8327 29.1229 13.1916ZM27.5072 15.1986C27.6315 15.1777 27.735 15.1568 27.8593 15.1359V14.0906C27.7558 14.0697 27.6315 14.0488 27.5072 14.0488C27.2793 14.0279 27.0308 14.0069 26.7201 14.0069C25.8708 14.0069 25.5808 14.2996 25.5808 14.655C25.5808 15.0104 25.8708 15.3031 26.7201 15.3031C27.0101 15.2822 27.3001 15.2404 27.5072 15.1986Z" fill="white"/>
<path d="M31.9 12.2297C31.8172 12.2506 31.7136 12.2715 31.6515 12.3133V16.2646H30.3672V11.498C30.5536 11.4144 30.7608 11.3308 30.9679 11.2681C31.3615 11.1426 31.8379 11.0381 32.3972 11.0381C32.8736 11.0381 33.2879 11.1217 33.5986 11.2471C33.785 11.3099 33.93 11.3726 34.075 11.4562L33.7229 12.4597C33.6193 12.4179 33.5157 12.3552 33.3914 12.3133C33.1636 12.2297 32.8529 12.167 32.5007 12.167C32.2522 12.1461 32.045 12.1879 31.9 12.2297Z" fill="white"/>
<path d="M36.0011 11.2476H34.7168V16.2441H36.0011V11.2476Z" fill="white"/>
<path d="M42.2975 16.0559C42.2975 17.2476 41.2618 18.3556 39.4804 18.3556C38.8797 18.3556 38.4033 18.2092 38.0719 18.0629C37.8647 17.9793 37.699 17.8747 37.554 17.7702L38.0512 16.8713C38.1754 16.934 38.2997 17.0176 38.4654 17.0803C38.7347 17.1848 39.0662 17.2894 39.5011 17.2894C40.164 17.2894 40.5576 17.0176 40.7647 16.7458C40.889 16.5786 40.9926 16.4113 41.034 16.2023V16.0977C40.9097 16.1186 40.8061 16.1395 40.6818 16.1395C40.454 16.1604 40.2054 16.1814 39.9569 16.1814C38.279 16.1814 37.3262 15.2406 37.3262 13.9235V11.2476H38.6104V13.9026C38.6104 14.5507 39.1076 15.0524 39.9569 15.0524C40.2261 15.0524 40.4954 15.0106 40.7026 14.9688C40.8268 14.9479 40.9304 14.927 41.034 14.9061V11.2476H42.3183V16.0559H42.2975Z" fill="white"/>
<path d="M48.0565 13.2541V16.0973C47.8286 16.16 47.6008 16.2228 47.3315 16.2855C46.8551 16.3691 46.2751 16.4527 45.6329 16.4527C43.893 16.4527 43.168 15.7001 43.168 14.6966C43.168 13.6931 43.9137 12.9405 45.6329 12.9405C45.9437 12.9405 46.2336 12.9614 46.4408 12.9823C46.5651 12.9823 46.6686 13.0032 46.7722 13.0241C46.7722 12.4597 46.4201 12.1252 45.6329 12.1252C45.2394 12.1252 44.8872 12.2088 44.6387 12.2924C44.4937 12.3343 44.3694 12.397 44.2451 12.4806L43.748 11.5816C43.893 11.4771 44.0587 11.3935 44.2451 11.3099C44.5972 11.1635 45.0322 11.0381 45.6329 11.0381C47.2072 11.059 48.0565 11.8952 48.0565 13.2541ZM46.4201 15.2611C46.5444 15.2402 46.6479 15.2193 46.7722 15.1984V14.1531C46.6686 14.1322 46.5444 14.1113 46.4201 14.1113C46.1922 14.0904 45.9437 14.0694 45.6329 14.0694C44.7837 14.0694 44.4937 14.3621 44.4937 14.7175C44.4937 15.0729 44.7837 15.3656 45.6329 15.3656C45.9229 15.3447 46.2129 15.3029 46.4201 15.2611Z" fill="white"/>
<path d="M6.17317 0.439024L6.62888 1.37979C6.75316 1.60976 6.9603 1.777 7.22959 1.81882L8.24457 1.96516C8.90742 2.06969 9.15599 2.86411 8.67957 3.34495L7.93386 4.07666C7.74744 4.26481 7.66458 4.53659 7.70601 4.78746L7.87172 5.81185C7.97529 6.45993 7.29173 6.96167 6.71174 6.66899L5.80032 6.18815C5.57246 6.06272 5.28247 6.06272 5.05461 6.18815L4.1432 6.66899C3.5632 6.98258 2.87964 6.48084 2.98321 5.81185L3.14892 4.78746C3.19035 4.53659 3.1075 4.26481 2.92107 4.07666L2.21679 3.34495C1.74037 2.88502 2.00965 2.06969 2.65179 1.96516L3.66677 1.81882C3.93606 1.777 4.1432 1.60976 4.26748 1.37979L4.72319 0.439024C5.0339 -0.146341 5.86246 -0.146341 6.17317 0.439024Z" fill="#F4C82F"/>
<path d="M51.371 5.37283L51.5989 5.83276C51.661 5.9582 51.7646 6.04182 51.8888 6.04182L52.4067 6.12545C52.7381 6.16726 52.8624 6.58538 52.6346 6.81534L52.2617 7.17074C52.1581 7.25437 52.1167 7.40071 52.1581 7.52614L52.241 8.02788C52.3031 8.36238 51.951 8.59234 51.661 8.446L51.2053 8.19513C51.081 8.13241 50.9567 8.13241 50.8324 8.19513L50.3767 8.446C50.0867 8.59234 49.7553 8.34147 49.7967 8.02788L49.8796 7.52614C49.9003 7.40071 49.8589 7.25437 49.776 7.17074L49.4032 6.81534C49.1753 6.58538 49.2996 6.18816 49.631 6.12545L50.1489 6.04182C50.2732 6.02092 50.3974 5.93729 50.4389 5.83276L50.6667 5.37283C50.8117 5.08015 51.226 5.08015 51.371 5.37283Z" fill="#F4C82F"/>
<path d="M19.4726 1.94418L19.7004 2.40411C19.7626 2.52954 19.8661 2.61317 19.9904 2.61317L20.5083 2.69679C20.8397 2.7386 20.964 3.15672 20.7361 3.38669L20.3633 3.74209C20.2597 3.82571 20.2183 3.97205 20.2597 4.09749L20.3425 4.59923C20.4047 4.93372 20.0526 5.16369 19.7626 5.01735L19.3068 4.76648C19.1826 4.70376 19.0583 4.70376 18.934 4.76648L18.4783 5.01735C18.1883 5.16369 17.8569 4.91282 17.8983 4.59923L17.9811 4.09749C18.0019 3.97205 17.9604 3.82571 17.8776 3.74209L17.5047 3.38669C17.2769 3.15672 17.4012 2.75951 17.7326 2.69679L18.2504 2.61317C18.3747 2.59226 18.499 2.50864 18.5404 2.40411L18.7683 1.94418C18.9133 1.63059 19.3276 1.63059 19.4726 1.94418Z" fill="#F4C82F"/>
<path d="M4.6609 21.9304L4.86804 22.3694C4.93018 22.4739 5.03375 22.5576 5.15803 22.5785L5.63446 22.6412C5.94517 22.683 6.06945 23.0802 5.8416 23.2893L5.48946 23.6447C5.4066 23.7283 5.36517 23.8537 5.38589 23.9792L5.46874 24.46C5.53089 24.7736 5.19946 25.0036 4.93018 24.8572L4.49519 24.6273C4.39162 24.5645 4.24662 24.5645 4.14305 24.6273L3.70805 24.8572C3.43877 25.0036 3.10735 24.7736 3.16949 24.46L3.25234 23.9792C3.27306 23.8537 3.23163 23.7283 3.14877 23.6447L2.79664 23.2893C2.56878 23.0593 2.69307 22.683 3.00378 22.6412L3.4802 22.5785C3.60448 22.5576 3.70805 22.4739 3.77019 22.3694L3.97734 21.9304C4.12233 21.6586 4.5159 21.6586 4.6609 21.9304Z" fill="#F4C82F"/>
<path d="M46.6686 22.5575L47.2072 23.6655C47.3522 23.9373 47.6007 24.1464 47.9114 24.1882L49.1129 24.3554C49.8793 24.46 50.19 25.4216 49.6307 25.9652L48.7607 26.8223C48.5329 27.0314 48.4293 27.345 48.4914 27.6586L48.6986 28.8711C48.8229 29.6446 48.0357 30.23 47.3314 29.8746L46.2543 29.3101C45.985 29.1638 45.6536 29.1638 45.3843 29.3101L44.3072 29.8746C43.6236 30.23 42.8158 29.6446 42.9401 28.8711L43.1472 27.6586C43.2094 27.345 43.1058 27.0314 42.8779 26.8223L42.0079 25.9652C41.4487 25.4216 41.7594 24.46 42.5258 24.3554L43.7272 24.1882C44.0379 24.1464 44.3072 23.9582 44.4315 23.6655L44.97 22.5575C45.3429 21.8467 46.3372 21.8467 46.6686 22.5575Z" fill="#F4C82F"/>
</svg>
