<svg width="987" height="776" viewBox="0 0 987 776" fill="none" xmlns="http://www.w3.org/2000/svg">
<g clip-path="url(#clip0_1029_134)">
<path d="M345.695 372.069L345.664 372.084L345.633 372.097L267.617 405.049C267.611 405.051 267.606 405.054 267.601 405.056C219.852 425.974 216.545 491.748 261.881 517.897C261.884 517.899 261.887 517.901 261.89 517.902L335.779 559.556L335.789 559.562L335.8 559.568C355.051 570.668 367.686 589.811 370.117 612.873L370.118 612.884L370.119 612.895L378.304 697.483L378.305 697.492L378.306 697.5C382.977 749.595 445.084 773.478 483.074 737.815L483.082 737.808L544.846 680.308C544.853 680.301 544.86 680.294 544.868 680.287C560.785 664.752 584.172 658.486 605.725 663.98C605.734 663.983 605.744 663.985 605.754 663.988L687.993 682.902L688.003 682.905C738.735 694.795 780.58 643.057 758.578 595.607L758.574 595.599L758.57 595.591L723.365 518.243C714.231 498.175 715.298 474.146 726.423 454.901L726.429 454.891L726.435 454.88L769.61 381.841L769.614 381.835L769.617 381.829C796.058 337.674 760.068 281.228 708.228 286.99C708.223 286.991 708.217 286.991 708.212 286.992L624.172 297.462L624.138 297.467L624.104 297.47C602.208 299.597 580.053 291.801 565.343 274.422L509.745 210.995L509.739 210.988C476.272 172.528 412.374 189.535 401.491 240.02C401.49 240.026 401.489 240.033 401.487 240.039L385.063 322.706C385.062 322.713 385.061 322.721 385.06 322.728C381.01 345.134 365.721 362.963 345.695 372.069Z" stroke="#EDEDED" stroke-width="5"/>
<path d="M872.127 -4.42525L872.096 -4.43709L872.065 -4.44977L830.62 -21.3418C830.615 -21.3436 830.61 -21.3455 830.605 -21.3474C805.847 -31.0558 781.129 -8.79664 788.125 16.8089C788.126 16.8126 788.127 16.8163 788.128 16.8201L800.323 59.7541L800.326 59.7658L800.329 59.7775C803.516 71.427 801.054 83.6142 793.152 93.3494L793.146 93.3577L793.139 93.3661L764.78 127.694L764.775 127.701L764.769 127.708C747.828 147.921 761.644 178.78 788.181 179.722L788.191 179.722L832.686 181.485C844.813 181.686 856.26 188.295 862.497 198.696L886.271 236.349L886.277 236.357C900.36 258.868 933.994 255.404 943.028 230.626L943.031 230.617L943.034 230.609L958.584 188.886C962.755 177.694 972.387 168.931 984.077 165.864L984.089 165.861L984.101 165.858L1027.4 154.946L1027.41 154.945L1027.42 154.943C1052.73 148.717 1060.01 115.688 1039.2 99.0823L1003.83 71.6259L1003.81 71.6053L1003.78 71.584C994.53 63.9957 988.931 52.4979 989.908 40.1613L992.648 -4.00583L992.649 -4.01495C994.337 -29.7061 965.18 -46.6662 943.139 -32.5693L906.276 -8.12405C896.081 -1.1092 883.324 -0.209072 872.127 -4.42525Z" stroke="#EDEDED" stroke-width="5"/>
<path d="M65.8298 612.884L65.7963 612.88L65.763 612.876L42.6089 609.967C42.6036 609.967 42.5984 609.966 42.5932 609.966C29.7945 608.537 21.0122 622.061 27.4942 633.194C27.4961 633.197 27.498 633.201 27.4999 633.204L39.4294 653.214L39.4356 653.224L39.4417 653.235C42.8128 659.016 43.2355 665.906 40.4089 672.24L40.4045 672.25L40.4001 672.26L30.7328 693.431L30.7292 693.439L30.7254 693.447C25.3307 705.043 35.6485 717.761 48.1841 714.864L48.1942 714.862L70.8478 709.725C77.3814 708.09 84.4569 709.985 89.2973 714.669L106.348 730.444L106.355 730.451C115.763 739.228 131.058 733.372 132.183 720.633L132.184 720.624L132.185 720.615L134.399 697.447C135.029 690.847 138.924 684.775 144.741 681.45L144.752 681.444L144.762 681.438L165.12 670.061L165.126 670.058L165.132 670.054C176.171 663.967 175.471 647.576 163.646 642.402L142.126 633.337L142.095 633.324L142.064 633.31C136.062 630.59 131.406 625.245 130.155 618.466L125.584 595.81L125.582 595.801C123.167 583.602 107.413 579.268 98.8385 588.663L83.5656 605.982C79.0928 611.228 72.3876 613.529 65.8298 612.884Z" stroke="#EDEDED" stroke-width="5"/>
</g>
<defs>
<clipPath id="clip0_1029_134">
<rect width="1108" height="776" fill="white"/>
</clipPath>
</defs>
</svg>
