<svg width="30" height="30" viewBox="0 0 30 30" fill="none" xmlns="http://www.w3.org/2000/svg">
<path d="M1.34452 23.7749C3.70395 22.6258 5.55183 21.2887 6.88814 19.7635C8.22446 18.2384 8.99702 16.3894 9.20582 14.2165H7.4519C6.15735 14.2165 5.10291 14.0703 4.28859 13.7778C3.47427 13.4853 2.81655 13.0779 2.31544 12.5556C1.8352 12.0541 1.49068 11.5005 1.28188 10.8946C1.09396 10.2887 1 9.66192 1 9.01425C1 7.67711 1.53244 6.50712 2.59732 5.50427C3.68307 4.50142 4.95675 4 6.41834 4C8.71514 4 10.4795 4.76258 11.7114 6.28775C12.9433 7.81292 13.5593 9.92308 13.5593 12.6182C13.5593 15.1254 12.4944 17.6534 10.3647 20.2023C8.25578 22.7512 5.70843 24.6838 2.72259 26L1.34452 23.7749ZM16.7852 23.7749C19.1447 22.6258 20.9925 21.2887 22.3289 19.7635C23.6652 18.2384 24.4377 16.3894 24.6465 14.2165H22.8926C21.5981 14.2165 20.5436 14.0703 19.7293 13.7778C18.915 13.4853 18.2573 13.0779 17.7562 12.5556C17.2759 12.0541 16.9314 11.5005 16.7226 10.8946C16.5347 10.2887 16.4407 9.66192 16.4407 9.01425C16.4407 7.67711 16.9732 6.50712 18.038 5.50427C19.1238 4.50142 20.3975 4 21.8591 4C24.1559 4 25.9202 4.76258 27.1521 6.28775C28.384 7.81292 29 9.92308 29 12.6182C29 15.1254 27.9351 17.6534 25.8054 20.2023C23.6965 22.7512 21.1491 24.6838 18.1633 26L16.7852 23.7749Z" fill="#EC1E8E"/>
</svg>
