<svg width="161" height="90" viewBox="0 0 161 90" fill="none" xmlns="http://www.w3.org/2000/svg">
<g clip-path="url(#clip0_1022_2)">
<path d="M111.567 2.13218L113.589 6.20884C114.094 7.27504 115.105 7.96494 116.242 8.15309L120.791 8.78027C123.697 9.21929 124.834 12.7315 122.749 14.8012L119.464 17.9998C118.643 18.8151 118.264 19.944 118.453 21.1357L119.211 25.6514C119.717 28.5364 116.684 30.7315 114.094 29.3517L110.051 27.2193C109.04 26.6548 107.776 26.6548 106.766 27.2193L102.722 29.3517C100.132 30.7315 97.0997 28.5364 97.6051 25.6514L98.3632 21.1357C98.5528 20.0068 98.1737 18.8151 97.3524 17.9998L94.0673 14.8012C91.9825 12.7942 93.1196 9.21929 96.0257 8.78027L100.574 8.15309C101.712 7.96494 102.722 7.27504 103.228 6.20884L105.249 2.13218C106.513 -0.439244 110.24 -0.439244 111.567 2.13218Z" fill="#F4C82F"/>
<path d="M69.9369 69.8679L71.2004 72.3766C71.5163 73.0037 72.1481 73.4428 72.843 73.5682L75.6228 73.9445C77.3917 74.1954 78.1498 76.3905 76.8231 77.6449L74.8015 79.5891C74.2961 80.0909 74.0434 80.7807 74.1697 81.5334L74.6751 84.2929C74.991 86.049 73.0957 87.4288 71.5163 86.5508L68.9893 85.2337C68.3575 84.9201 67.5994 84.9201 66.9677 85.2337L64.4406 86.5508C62.8612 87.3661 60.966 86.049 61.2818 84.2929L61.7872 81.5334C61.9136 80.8435 61.6609 80.0909 61.1555 79.5891L59.1338 77.6449C57.8072 76.3905 58.5653 74.1954 60.3342 73.9445L63.1139 73.5682C63.8089 73.4428 64.4406 73.0037 64.7565 72.3766L66.02 69.8679C66.8413 68.2999 69.1156 68.2999 69.9369 69.8679Z" fill="#F4C82F"/>
<path d="M139.24 24.397H118.392H43.5282H16.3626C7.32841 24.397 0 31.6722 0 40.5782C0 49.5468 7.32841 56.8221 16.3626 56.8221L43.5282 57.0102H118.455L139.303 56.8221C148.337 56.8221 155.665 49.5468 155.665 40.5782C155.602 31.6722 148.274 24.397 139.24 24.397Z" fill="#EC1E8E"/>
<path d="M24.0033 39.5753V48.1049C23.3083 48.2931 22.6134 48.4813 21.7921 48.6694C20.3391 48.9203 18.5701 49.1712 16.6117 49.1712C11.3049 49.1712 9.09375 46.9133 9.09375 43.9029C9.09375 40.8924 11.3681 38.6346 16.6117 38.6346C17.5593 38.6346 18.4438 38.6973 19.0755 38.76C19.4546 38.76 19.7705 38.8227 20.0864 38.8854C20.0864 37.1921 19.0124 36.1886 16.6117 36.1886C15.4113 36.1886 14.3374 36.4394 13.5792 36.6903C13.137 36.8157 12.758 37.0039 12.3789 37.2548L10.8627 34.5579C11.3049 34.2443 11.8103 33.9934 12.3789 33.7426C13.4529 33.3036 14.7796 32.9272 16.6117 32.9272C21.4762 32.99 24.0033 35.4987 24.0033 39.5753ZM19.0124 45.659C19.3914 45.5962 19.7073 45.5335 20.0864 45.4708V42.3349C19.7705 42.2722 19.3914 42.2095 19.0124 42.2095C18.3174 42.1468 17.5593 42.084 16.6117 42.084C14.0215 42.084 13.137 42.9621 13.137 44.0283C13.137 45.0945 14.0215 45.9725 16.6117 45.9725C17.5593 45.8471 18.3806 45.7844 19.0124 45.659Z" fill="white"/>
<path d="M33.9904 44.655L38.2232 33.6167H42.4559L36.2647 48.5435H31.5897L25.3984 33.6167H29.6312L33.864 44.655H33.9904Z" fill="white"/>
<path d="M58.058 39.5753V48.1049C57.363 48.2931 56.6681 48.4813 55.8468 48.6694C54.3938 48.9203 52.6248 49.1712 50.6664 49.1712C45.3596 49.1712 43.1484 46.9133 43.1484 43.9029C43.1484 40.8924 45.4228 38.6346 50.6664 38.6346C51.614 38.6346 52.4985 38.6973 53.1302 38.76C53.5093 38.76 53.8252 38.8227 54.141 38.8854C54.141 37.1921 53.0671 36.1886 50.6664 36.1886C49.466 36.1886 48.392 36.4394 47.6339 36.6903C47.1917 36.8157 46.8126 37.0039 46.4336 37.2548L44.9174 34.5579C45.3596 34.2443 45.865 33.9934 46.4336 33.7426C47.5076 33.3036 48.8343 32.9272 50.6664 32.9272C55.4677 32.99 58.058 35.4987 58.058 39.5753ZM53.0671 45.659C53.4461 45.5962 53.762 45.5335 54.141 45.4708V42.3349C53.8252 42.2722 53.4461 42.2095 53.0671 42.2095C52.3721 42.1468 51.614 42.084 50.6664 42.084C48.0762 42.084 47.1917 42.9621 47.1917 44.0283C47.1917 45.0945 48.0762 45.9725 50.6664 45.9725C51.5508 45.8471 52.4353 45.7844 53.0671 45.659Z" fill="white"/>
<path d="M66.9687 29.3523V33.5544H71.6438V36.6902H66.9687V42.962C66.9687 44.7808 68.0427 45.7843 69.8117 45.7843C70.5066 45.7843 71.0752 45.6589 71.4542 45.4707C71.7069 45.408 71.8965 45.2826 72.086 45.1571L72.9704 48.1676C72.6546 48.293 72.2755 48.4812 71.8965 48.6066C71.2015 48.8575 70.4434 49.0456 69.4958 49.0456C65.263 49.0456 62.9886 46.8505 62.9886 42.8993V36.6275H60.3984V33.4916H62.9886L64.5049 29.2896H66.9687V29.3523Z" fill="white"/>
<path d="M88.8236 39.5753V48.1049C88.1287 48.2931 87.4337 48.4813 86.6124 48.6694C85.1594 48.9203 83.3904 49.1712 81.432 49.1712C76.1252 49.1712 73.9141 46.9133 73.9141 43.9029C73.9141 40.8924 76.1884 38.6346 81.432 38.6346C82.3796 38.6346 83.2641 38.6973 83.8959 38.76C84.2749 38.76 84.5908 38.8227 84.9067 38.8854C84.9067 37.1921 83.8327 36.1886 81.432 36.1886C80.2317 36.1886 79.1577 36.4394 78.3996 36.6903C77.9573 36.8157 77.5783 37.0039 77.1992 37.2548L75.683 34.5579C76.1252 34.2443 76.6306 33.9934 77.1992 33.7426C78.2732 33.3036 79.5999 32.9272 81.432 32.9272C86.2965 32.9272 88.8236 35.4987 88.8236 39.5753ZM83.8959 45.5962C84.2749 45.5335 84.5908 45.4708 84.9698 45.4081V42.2722C84.654 42.2095 84.2749 42.1468 83.8959 42.1468C83.2009 42.084 82.4428 42.0213 81.4952 42.0213C78.905 42.0213 78.0205 42.8994 78.0205 43.9656C78.0205 45.0318 78.905 45.9098 81.4952 45.9098C82.3796 45.8471 83.2641 45.7217 83.8959 45.5962Z" fill="white"/>
<path d="M97.2922 36.6897C97.0395 36.7524 96.7236 36.8151 96.5341 36.9405V48.7942H92.6172V34.4945C93.1858 34.2437 93.8175 33.9928 94.4493 33.8046C95.6496 33.4283 97.1027 33.1147 98.8084 33.1147C100.261 33.1147 101.525 33.3656 102.473 33.7419C103.041 33.9301 103.483 34.1182 103.926 34.3691L102.852 37.3796C102.536 37.2541 102.22 37.066 101.841 36.9405C101.146 36.6897 100.198 36.5015 99.1243 36.5015C98.3662 36.4388 97.7344 36.5642 97.2922 36.6897Z" fill="white"/>
<path d="M109.8 33.7422H105.883V48.7317H109.8V33.7422Z" fill="white"/>
<path d="M129.006 48.1673C129.006 51.7422 125.847 55.0662 120.414 55.0662C118.582 55.0662 117.129 54.6272 116.118 54.1882C115.486 53.9373 114.981 53.6237 114.539 53.3101L116.055 50.6133C116.434 50.8014 116.813 51.0523 117.318 51.2404C118.14 51.554 119.151 51.8676 120.477 51.8676C122.499 51.8676 123.699 51.0523 124.331 50.237C124.71 49.7352 125.026 49.2335 125.152 48.6063V48.2927C124.773 48.3554 124.457 48.4181 124.078 48.4181C123.383 48.4809 122.625 48.5436 121.867 48.5436C116.75 48.5436 113.844 45.7213 113.844 41.7701V33.7422H117.761V41.7073C117.761 43.6516 119.277 45.1568 121.867 45.1568C122.688 45.1568 123.51 45.0314 124.141 44.9059C124.52 44.8432 124.836 44.7805 125.152 44.7178V33.7422H129.069V48.1673H129.006Z" fill="white"/>
<path d="M146.566 39.7628V48.2924C145.871 48.4806 145.176 48.6688 144.355 48.8569C142.902 49.1078 141.133 49.3586 139.174 49.3586C133.867 49.3586 131.656 47.1008 131.656 44.0904C131.656 41.0799 133.931 38.8221 139.174 38.8221C140.122 38.8221 141.006 38.8848 141.638 38.9475C142.017 38.9475 142.333 39.0102 142.649 39.0729C142.649 37.3796 141.575 36.3761 139.174 36.3761C137.974 36.3761 136.9 36.6269 136.142 36.8778C135.7 37.0032 135.32 37.1914 134.941 37.4423L133.425 34.7454C133.867 34.4318 134.373 34.1809 134.941 33.9301C136.015 33.4911 137.342 33.1147 139.174 33.1147C143.976 33.1775 146.566 35.6862 146.566 39.7628ZM141.575 45.7837C141.954 45.721 142.27 45.6583 142.649 45.5956V42.4597C142.333 42.397 141.954 42.3343 141.575 42.3343C140.88 42.2715 140.122 42.2088 139.174 42.2088C136.584 42.2088 135.7 43.0869 135.7 44.1531C135.7 45.2193 136.584 46.0973 139.174 46.0973C140.059 46.0346 140.943 45.9092 141.575 45.7837Z" fill="white"/>
<path d="M18.8287 1.31707L20.2185 4.13937C20.5976 4.82927 21.2294 5.33101 22.0506 5.45645L25.1463 5.89547C27.1679 6.20906 27.926 8.59233 26.473 10.0348L24.1986 12.23C23.63 12.7944 23.3773 13.6098 23.5037 14.3624L24.0091 17.4355C24.325 19.3798 22.2402 20.885 20.4713 20.007L17.6915 18.5645C16.9966 18.1882 16.1121 18.1882 15.4172 18.5645L12.6374 20.007C10.8685 20.9477 8.7837 19.4425 9.09958 17.4355L9.60499 14.3624C9.73134 13.6098 9.47864 12.7944 8.91006 12.23L6.76207 10.0348C5.30903 8.65505 6.13032 6.20906 8.08877 5.89547L11.1844 5.45645C12.0057 5.33101 12.6374 4.82927 13.0165 4.13937L14.4064 1.31707C15.354 -0.439024 17.881 -0.439024 18.8287 1.31707Z" fill="#F4C82F"/>
<path d="M156.676 16.1185L157.371 17.4983C157.56 17.8746 157.876 18.1255 158.255 18.1255L159.835 18.3763C160.846 18.5018 161.225 19.7561 160.53 20.446L159.393 21.5122C159.077 21.7631 158.95 22.2021 159.077 22.5784L159.329 24.0837C159.519 25.0871 158.445 25.777 157.56 25.338L156.171 24.5854C155.792 24.3972 155.412 24.3972 155.033 24.5854L153.644 25.338C152.759 25.777 151.748 25.0244 151.875 24.0837L152.127 22.5784C152.19 22.2021 152.064 21.7631 151.811 21.5122L150.674 20.446C149.979 19.7561 150.358 18.5645 151.369 18.3763L152.949 18.1255C153.328 18.0627 153.707 17.8119 153.833 17.4983L154.528 16.1185C154.97 15.2404 156.234 15.2404 156.676 16.1185Z" fill="#F4C82F"/>
<path d="M59.3869 5.83302L60.0819 7.21281C60.2714 7.58911 60.5873 7.83998 60.9663 7.83998L62.5457 8.09086C63.5565 8.21629 63.9356 9.47065 63.2407 10.1605L62.1035 11.2267C61.7876 11.4776 61.6613 11.9166 61.7876 12.2929L62.0403 13.7982C62.2298 14.8017 61.1558 15.4916 60.2714 15.0525L58.8815 14.2999C58.5025 14.1118 58.1234 14.1118 57.7443 14.2999L56.3545 15.0525C55.47 15.4916 54.4592 14.7389 54.5856 13.7982L54.8383 12.2929C54.9014 11.9166 54.7751 11.4776 54.5224 11.2267L53.3852 10.1605C52.6903 9.47065 53.0693 8.27901 54.0801 8.09086L55.6595 7.83998C56.0386 7.77727 56.4177 7.5264 56.544 7.21281L57.2389 5.83302C57.6812 4.89225 58.9447 4.89225 59.3869 5.83302Z" fill="#F4C82F"/>
<path d="M14.2144 65.7907L14.8461 67.1078C15.0357 67.4214 15.3516 67.6722 15.7306 67.7349L17.1837 67.9231C18.1313 68.0485 18.5104 69.2402 17.8154 69.8674L16.7414 70.9336C16.4887 71.1844 16.3624 71.5607 16.4255 71.937L16.6783 73.3795C16.8678 74.3203 15.857 75.0102 15.0357 74.5712L13.709 73.8813C13.3931 73.6931 12.9509 73.6931 12.635 73.8813L11.3083 74.5712C10.487 75.0102 9.4762 74.3203 9.66572 73.3795L9.91843 71.937C9.9816 71.5607 9.85525 71.1844 9.60255 70.9336L8.52856 69.8674C7.83362 69.1775 8.21268 68.0485 9.16032 67.9231L10.6134 67.7349C10.9924 67.6722 11.3083 67.4214 11.4978 67.1078L12.1296 65.7907C12.5718 64.9754 13.7722 64.9754 14.2144 65.7907Z" fill="#F4C82F"/>
<path d="M142.335 67.6725L143.977 70.9966C144.419 71.8119 145.178 72.4391 146.125 72.5645L149.789 73.0663C152.127 73.3799 153.075 76.2649 151.369 77.8955L148.715 80.467C148.021 81.0941 147.705 82.0349 147.894 82.9757L148.526 86.6133C148.905 88.9339 146.504 90.69 144.356 89.6238L141.071 87.9304C140.25 87.4914 139.239 87.4914 138.418 87.9304L135.133 89.6238C133.048 90.69 130.584 88.9339 130.963 86.6133L131.595 82.9757C131.784 82.0349 131.468 81.0941 130.773 80.467L128.12 77.8955C126.414 76.2649 127.362 73.3799 129.699 73.0663L133.364 72.5645C134.311 72.4391 135.133 71.8746 135.512 70.9966L137.154 67.6725C138.291 65.5401 141.324 65.5401 142.335 67.6725Z" fill="#F4C82F"/>
</g>
<defs>
<clipPath id="clip0_1022_2">
<rect width="160.909" height="90" fill="white"/>
</clipPath>
</defs>
</svg>
